<?xml version="1.0" encoding="UTF-8"?>
<svg id="Layer_1" data-name="Layer 1" xmlns="http://www.w3.org/2000/svg" viewBox="0 0 589.94 115.38">
  <defs>
    <style>
      .cls-1 {
        fill: #2fa048;
      }

      .cls-1, .cls-2 {
        stroke-width: 0px;
      }

      .cls-2 {
        fill: #171917;
      }
    </style>
  </defs>
  <path class="cls-2" d="M66.82,112.05c-1.48,0-2.92-.56-4.01-1.58-1.19-1.11-1.87-2.67-1.87-4.3,0-1.2,0-2.43,0-3.67-.88,1.92-2.76,3.26-4.94,3.4l-20.23,1.37c-.13,0-.27.01-.4.01-2.76,0-5.17-1.93-5.75-4.67l-1.65-7.8-.03,7.4c-.01,3.08-2.4,5.63-5.47,5.84l-15.92,1.11c-.14,0-.27.01-.41.01-1.51,0-2.96-.58-4.06-1.62-1.2-1.14-1.86-2.73-1.82-4.38.3-14.24.46-28.53.46-42.48C.72,43.27.48,25.81,0,8.78c-.04-1.56.54-3.08,1.61-4.21s2.56-1.79,4.12-1.83c0,0,23.72-.59,23.77-.59,2.74,0,5.13,1.9,5.74,4.59l8.8,39.11,6.04-33.9c.5-2.81,2.94-4.85,5.79-4.85.02,0,29.82.33,29.82.33,1.59.02,3.1.67,4.19,1.82,1.09,1.15,1.68,2.69,1.62,4.27-.52,14-.78,28.32-.78,42.59,0,15.9.33,32.22.97,48.51.13,3.18-2.3,5.88-5.47,6.1l-18.99,1.31c-.13,0-.27.01-.4.01Z"/>
  <path class="cls-1" d="M29.5,8.03l15.2,67.6,11.16-62.64,29.75.33c-.52,14.14-.78,28.41-.78,42.8,0,16.05.33,32.3.98,48.74l-18.99,1.31c0-17.31-.2-38.48-.59-63.49l-10.64,57.35-20.23,1.37-13.05-61.86-.26,62.64-15.92,1.11c.3-14.31.46-28.51.46-42.61,0-17.57-.24-34.93-.72-52.07l23.62-.59Z"/>
  <path class="cls-2" d="M124.7,115.38c-1.59,0-3.1-.64-4.21-1.78-1.13-1.16-1.73-2.72-1.66-4.34.21-5.39.32-10.27.32-14.51,0-14.72-1.4-19.26-1.92-20.44.31,10.01.8,19.65,1.46,28.76.12,1.61-.43,3.2-1.52,4.39-1.09,1.19-2.62,1.89-4.23,1.92,0,0-20.3.39-20.34.39-1.56,0-3.06-.62-4.16-1.73-1.13-1.13-1.75-2.68-1.72-4.28.26-12.35.39-24.95.39-37.46,0-19.15-.31-38.78-.91-58.35-.1-3.08,2.21-5.71,5.27-6.03,6.92-.71,13.22-1.08,18.74-1.08,16.99,0,27.83,3.44,33.15,10.5,4.59,6.11,6.92,12.96,6.92,20.37,0,3.25-.43,6.63-1.28,10.04-1.8,6.84-4.84,12.25-9.08,16.2,2.13,1.85,3.96,4.16,5.46,6.88,2.11,3.9,4.9,12.42,4.9,41.59v2.81c0,3.22-2.59,5.84-5.8,5.88,0,0-19.76.26-19.78.26ZM115.52,43.97c3.17-1.15,3.92-2.88,4.22-3.6.86-1.98,1.29-3.84,1.29-5.58,0-1.46-.28-2.87-.87-4.3-.56-1.31-2.93-1.73-4.89-1.85l.25,15.34Z"/>
  <path class="cls-1" d="M92.6,103.88c.26-12.44.39-24.97.39-37.58,0-19.31-.3-38.82-.91-58.53,6.74-.7,12.79-1.04,18.14-1.04,14.88,0,24.36,2.72,28.45,8.16,3.83,5.09,5.74,10.7,5.74,16.83,0,2.78-.37,5.65-1.11,8.61-2.52,9.57-7.83,15.64-15.92,18.2,5.65.78,9.94,3.83,12.85,9.13,2.78,5.13,4.18,18.05,4.18,38.76v2.81l-19.71.26c.22-5.48.33-10.4.33-14.75,0-13.18-1.07-21.25-3.2-24.21-2.44-3.31-5.33-4.96-8.68-4.96-.65,0-1.33.07-2.02.2.26,13.27.83,25.84,1.7,37.71l-20.23.39ZM109.3,22.98l.46,27.93c8.09-.39,13.22-3.13,15.4-8.22,1.17-2.7,1.76-5.33,1.76-7.9,0-2.22-.44-4.39-1.3-6.52-1.57-3.7-5.46-5.55-11.68-5.55-1.44,0-2.98.09-4.63.26Z"/>
  <path class="cls-2" d="M199.28,113.61c-8.69,0-16.05-3.23-21.89-9.61-5.6-6.08-8.33-16.16-8.33-30.79,0-1.67.05-3.42.14-5.2.15-2.97,2.51-5.36,5.48-5.56l11.4-.77c-9.52-7.3-14.34-18.08-14.34-32.12,0-.55.02-1.1.07-1.65C172.26,10.22,183.07.31,202.25,0h.62c10.36,0,27.74,4.38,27.74,33.74,0,1.57-.05,3.25-.14,5.01-.16,2.99-2.54,5.39-5.53,5.56l-14.77.85c1.26.78,2.65,1.55,4.17,2.31,7.66,3.82,13.14,9.22,16.26,16.06,2.18,4.82,3.27,9.98,3.27,15.37,0,2.01-.15,4.09-.45,6.18-1.21,7.92-4.61,14.56-10.13,19.78-5.57,5.28-12.99,8.2-22.05,8.68-.64.05-1.3.08-1.96.08ZM201.61,83.26c2.34-.07,3.15-.3,3.15-3.65v-.47c-.11-2.39-1.74-5.05-4.73-7.82-.05,1.06-.08,2.07-.08,3.01,0,6.46,1.18,8.5,1.49,8.93h.17ZM200.51,29.78c-.03.49-.05.99-.05,1.48,0,2.03.46,3.93,1.39,5.77.07-1.07.1-2.09.1-3.03,0-3.24-.38-4.94-.65-5.74-.31.05-.44.12-.47.13,0,0-.22.37-.32,1.39Z"/>
  <path class="cls-1" d="M175.07,68.32l19.38-1.31c-.26,2.7-.39,5.13-.39,7.31,0,9.88,2.46,14.81,7.37,14.81h.26c5.96-.17,8.94-3.35,8.94-9.53v-.59c-.22-6.57-5.85-13.01-16.9-19.31-10.74-6.09-16.12-16.14-16.12-30.15,0-.43.02-.87.07-1.3.3-14.66,8.53-22.12,24.66-22.38h.52c14.57,0,21.86,9.29,21.86,27.86,0,1.48-.04,3.04-.13,4.7l-17.03.98c.17-1.96.26-3.76.26-5.42,0-7.79-1.89-11.68-5.68-11.68-4.57,0-7.07,2.33-7.5,6.98-.04.65-.07,1.3-.07,1.96,0,3.87,1.15,7.48,3.46,10.83,2.65,3.87,7.21,7.42,13.67,10.64,6.46,3.22,10.97,7.63,13.54,13.25,1.83,4.05,2.74,8.35,2.74,12.92,0,1.74-.13,3.52-.39,5.35-1,6.57-3.78,12.02-8.35,16.35-4.57,4.33-10.7,6.69-18.4,7.08-.52.04-1.04.07-1.57.07-7,0-12.85-2.57-17.55-7.7-4.52-4.92-6.79-13.85-6.79-26.82,0-1.57.04-3.2.13-4.89Z"/>
  <path class="cls-2" d="M262.11,108.53c-16.11,0-35.31-9.48-35.31-54.62,0-42.29,20.27-51.16,37.27-51.16,15.21,0,33.35,9.17,33.35,52.86s-19.2,52.93-35.31,52.93ZM263.29,35.38c-2.64,0-5.89,5.8-6.39,22.16-.04,1.1-.06,2.11-.06,3.08,0,4.39.4,18.72,5.6,18.72,3.9,0,6.32-8.42,6.32-21.98,0-15.18-2.75-21.98-5.47-21.98Z"/>
  <path class="cls-1" d="M264.07,8.62c18.31,0,27.47,15.66,27.47,46.98s-9.81,47.04-29.43,47.04-29.43-16.25-29.43-48.74c0-30.19,10.46-45.28,31.39-45.28ZM251.02,57.36c-.04,1.13-.07,2.22-.07,3.26,0,16.4,3.83,24.6,11.48,24.6,8.13,0,12.2-9.29,12.2-27.86s-3.78-27.86-11.35-27.86-11.7,9.29-12.27,27.86Z"/>
  <path class="cls-2" d="M297.87,109.5c-1.54,0-3.03-.61-4.13-1.69-1.13-1.12-1.77-2.64-1.75-4.23.04-5.73.07-11.43.07-17.12,0-25.92-.57-52.09-1.69-77.78-.14-3.14,2.22-5.83,5.35-6.11l19.64-1.76c.18-.02.35-.02.53-.02,1.5,0,2.95.57,4.04,1.61,1.22,1.16,1.89,2.79,1.83,4.47-.78,22.51-1.17,42.04-1.17,58.06,0,4.06.03,7.96.08,11.64l23.05-1.14c.1,0,.19,0,.29,0,1.48,0,2.92.56,4.01,1.58,1.16,1.08,1.84,2.59,1.87,4.18l.46,21.27c.07,3.24-2.5,5.93-5.75,6,0,0-46.68,1.05-46.72,1.05Z"/>
  <path class="cls-1" d="M315.88,6.66c-.78,22.66-1.18,42.09-1.18,58.27,0,6.44.07,12.38.2,17.81l29.1-1.44.46,21.27-46.59,1.04c.04-5.74.07-11.46.07-17.16,0-26.14-.57-52.16-1.7-78.04l19.64-1.76Z"/>
  <path class="cls-2" d="M375.71,109.37c-.22,0-.45-.01-.67-.04-18.23-2.08-28.2-12.67-28.83-30.63,0-.07,0-.14,0-.21,0-29.57-.31-53.21-.91-70.26-.06-1.59.54-3.14,1.65-4.29s2.64-1.8,4.23-1.8h17.36c1.61,0,3.14.66,4.25,1.82,1.11,1.16,1.7,2.72,1.63,4.33-.43,9.69-.65,21.26-.65,34.39,0,9.26.11,19.49.33,30.42.07,6.37,1.82,6.37,2.86,6.37.13,0,.27,0,.4.01,2.26-.72,2.33-8.65,2.33-9.6l-.33-60.13c-.02-3.19,2.51-5.81,5.7-5.91,0,0,19.3-.59,19.36-.59,1.53,0,2.99.59,4.09,1.66,1.14,1.11,1.79,2.63,1.79,4.22v64.53c0,23.02-11.77,35.7-33.15,35.7h-1.44Z"/>
  <path class="cls-1" d="M404.42,9.14v64.53c0,19.88-9.09,29.82-27.27,29.82h-1.44c-15.23-1.74-23.1-10.07-23.62-24.99,0-29.8-.31-53.29-.91-70.47h17.36c-.44,9.83-.65,21.38-.65,34.65,0,9.31.11,19.49.33,30.54.09,8.09,3,12.14,8.74,12.14,0,.04.02.07.07.07,5.7,0,8.55-5.18,8.55-15.53l-.33-60.16,19.18-.59Z"/>
  <path class="cls-2" d="M435.81,110.16c-10.55,0-18.87-5.27-24.06-15.24-4.67-8.98-6.94-21.71-6.94-38.93s2.35-29.42,7.18-38.25c5.32-9.73,13.81-14.87,24.54-14.87,11.29,0,30.22,4.87,30.22,37.46,0,1.31-.02,2.69-.07,4.1-.1,3.16-2.69,5.68-5.85,5.69,0,0-14.5.07-14.51.07-1.55,0-3.05-.62-4.15-1.71-1.11-1.1-1.73-2.6-1.73-4.17v-1.76c0-5.33-.88-7.69-1.4-8.62-.4-.71-.64-.82-1.15-.83-.58.6-3.5,4.54-3.5,22.44,0,21.02,3.34,25.39,3.97,26.02,1.11-.04,3.65-.6,3.65-9.78v-6.46c0-3.25,2.63-5.88,5.88-5.88h16.18c3.25,0,5.88,2.63,5.88,5.88v4.89c0,31.4-17.47,39.01-32.16,39.86-.65.05-1.31.08-1.97.08Z"/>
  <path class="cls-1" d="M460.8,44.25l-14.48.07v-1.76c0-10.22-2.87-15.33-8.61-15.33-6.13,0-9.2,9.44-9.2,28.32,0,21.27,3.22,31.91,9.66,31.91h.07c6.44-.04,9.66-5.26,9.66-15.66v-6.46h16.18v4.89c0,21.66-8.9,32.99-26.69,33.99-.52.04-1.04.07-1.57.07-16.75,0-25.12-16.09-25.12-48.28s8.61-47.24,25.84-47.24c16.22,0,24.34,10.53,24.34,31.58,0,1.26-.02,2.57-.07,3.91Z"/>
  <path class="cls-2" d="M501.77,109.57c-2.41,0-4.58-1.47-5.47-3.72-1.75-4.42-3.88-9.39-6.4-14.88v9.32c0,3.21-2.57,5.83-5.78,5.88,0,0-15.66.26-15.69.26-1.55,0-3.05-.62-4.15-1.72-1.13-1.12-1.75-2.65-1.73-4.24.3-23.06.46-52.4.46-87.23,0-3.07,2.36-5.62,5.41-5.86l16.31-1.3c.16-.01.31-.02.47-.02,1.48,0,2.91.56,4,1.57,1.21,1.12,1.89,2.7,1.88,4.35l-.11,16.46c3.1-5.91,6.09-11.56,8.93-16.91,1.03-1.93,3.03-3.12,5.19-3.12.11,0,.22,0,.34,0l18.27,1.04c2.01.11,3.82,1.25,4.8,3s1,3.89.05,5.66c-5.82,10.83-13.77,24.2-23.63,39.8,5.3,10.68,12.94,25.01,22.75,42.65,1.01,1.81.99,4.02-.05,5.81s-2.94,2.9-5.01,2.93c0,0-20.8.26-20.82.26Z"/>
  <path class="cls-1" d="M485.2,11.95l-.26,40.78c7.26-14.01,13.99-26.82,20.16-38.43l18.27,1.04c-6.13,11.4-14.53,25.47-25.19,42.22,5.39,11.09,13.51,26.38,24.34,45.87l-20.75.26c-4-10.13-9.92-22.88-17.75-38.24v34.84l-15.59.26c.3-23.14.46-52.24.46-87.3l16.31-1.3Z"/>
  <path class="cls-2" d="M544.12,109.05c-1.53,0-3-.59-4.1-1.66-1.17-1.13-1.81-2.7-1.78-4.32l.69-39.08c-9.64-20.4-17.2-37.29-22.5-50.19-.7-1.72-.56-3.66.39-5.25.95-1.59,2.6-2.64,4.44-2.83l18.4-1.89c.2-.02.4-.03.61-.03,2.49,0,4.74,1.58,5.56,3.98l6.78,19.81c3.19-9.48,5.92-17.1,8.16-22.74.89-2.24,3.06-3.72,5.47-3.72h17.81c1.96,0,3.79.97,4.88,2.6,1.09,1.62,1.31,3.68.57,5.5-10.28,25.31-17.86,44.09-22.54,55.87v37.31c0,3.14-2.47,5.73-5.61,5.87l-16.96.78c-.09,0-.18,0-.27,0Z"/>
  <path class="cls-1" d="M544.12,103.17l.72-40.45c-9.92-20.97-17.57-38.02-22.97-51.16l18.4-1.89,12.46,36.41c5.61-17.49,10.11-30.51,13.51-39.08h17.81c-10.66,26.23-18.31,45.22-22.97,56.96v38.43l-16.96.78Z"/>
</svg>